<svg width="180" height="180" viewBox="0 0 180 180" fill="none" xmlns="http://www.w3.org/2000/svg">
<path d="M180 90C180 139.706 139.706 180 90 180C40.2944 180 0 139.706 0 90C0 40.2944 40.2944 0 90 0C139.706 0 180 40.2944 180 90Z" fill="black"/>
<path d="M18 62H45L66 119H39L18 62Z" fill="white"/>
<path d="M46.5 62H73.5L94.5 119H67.5L46.5 62Z" fill="white"/>
<path d="M75 62H115.5L95.5 117.5L75 62Z" fill="white"/>
<path d="M117 62H146C154.837 62 162 69.1634 162 78V90H117V62Z" fill="white"/>
<path d="M109 91H154C158.418 91 162 94.5817 162 99V102C162 111.389 154.389 119 145 119H131C118.85 119 109 109.15 109 97V91Z" fill="white"/>
</svg>
